<?xml version="1.0" standalone="no"?>
<!DOCTYPE svg PUBLIC "-//W3C//DTD SVG 20010904//EN"
 "http://www.w3.org/TR/2001/REC-SVG-20010904/DTD/svg10.dtd">
<svg version="1.0" xmlns="http://www.w3.org/2000/svg"
 width="1080.000000pt" height="1080.000000pt" viewBox="0 0 1080.000000 1080.000000"
 preserveAspectRatio="xMidYMid meet">
<metadata>
Created by potrace 1.16, written by Peter Selinger 2001-2019
</metadata>
<g transform="translate(0.000000,1080.000000) scale(0.100000,-0.100000)"
fill="#000000" stroke="none">
<path d="M0 5400 l0 -5400 5400 0 5400 0 0 5400 0 5400 -5400 0 -5400 0 0
-5400z m6553 1526 c88 -37 130 -141 93 -229 -16 -39 -76 -94 -112 -103 -14 -4
-51 -4 -82 -1 l-57 6 -652 -652 -653 -652 -182 183 -183 182 498 498 498 498
-10 43 c-24 108 59 210 171 211 97 0 178 -77 178 -172 0 -54 -26 -103 -74
-143 -35 -28 -44 -30 -117 -30 l-79 0 -445 -445 c-245 -245 -445 -450 -445
-455 0 -6 44 -54 98 -108 l97 -97 613 613 614 614 -12 42 c-36 133 112 253
243 197z m-1378 -256 l180 -180 -653 -653 -652 -652 6 -47 c10 -75 -2 -115
-51 -163 -33 -34 -53 -45 -87 -50 -61 -9 -118 8 -155 47 -44 47 -53 70 -53
131 0 112 106 195 214 166 l39 -11 614 614 613 613 -102 102 -103 103 -457
-457 c-422 -422 -456 -458 -447 -480 21 -57 -1 -142 -48 -185 -28 -25 -88 -48
-125 -48 -112 1 -202 122 -168 225 32 97 120 144 225 121 29 -6 49 13 525 489
272 272 497 495 500 495 3 0 86 -81 185 -180z m2052 -406 c51 -38 73 -81 73
-138 0 -61 -35 -125 -84 -155 -36 -22 -103 -30 -146 -16 -20 6 -90 -60 -636
-606 l-614 -614 97 -97 c54 -54 102 -98 108 -98 5 0 211 201 457 448 l448 447
-6 65 c-4 56 -2 71 18 105 62 105 193 122 279 36 75 -75 73 -172 -6 -247 -34
-33 -53 -43 -92 -49 -28 -3 -60 -2 -78 5 -29 11 -31 9 -527 -487 l-498 -498
-182 182 -181 181 649 657 649 656 -4 64 c-3 55 1 71 23 109 51 88 172 112
253 50z m-1125 -521 c98 -98 178 -182 178 -188 0 -5 -223 -233 -495 -505
l-496 -496 12 -32 c22 -65 -11 -146 -79 -193 -51 -35 -134 -33 -189 3 -46 30
-83 96 -83 148 0 110 117 200 220 170 l35 -10 457 457 458 458 -97 97 c-54 54
-102 98 -108 98 -6 0 -284 -274 -618 -608 -594 -594 -608 -609 -597 -636 28
-76 -14 -171 -94 -213 -62 -32 -154 -14 -202 39 -62 67 -68 145 -20 219 42 63
132 95 199 70 22 -9 72 39 678 645 360 360 656 654 659 654 3 0 85 -80 182
-177z m-2161 -2330 c52 -131 94 -242 94 -248 0 -14 -44 -18 -59 -5 -8 6 -24
37 -36 70 l-22 60 -108 0 -108 0 -16 -48 c-23 -70 -42 -92 -77 -92 -16 0 -29
3 -29 6 0 4 44 116 97 250 l98 244 35 0 36 0 95 -237z m431 67 c37 -91 72
-178 78 -195 11 -29 15 -22 87 160 42 105 81 193 87 197 15 10 66 10 66 0 0
-4 -34 -91 -75 -192 -130 -318 -118 -295 -152 -298 -18 -2 -33 2 -36 10 -48
115 -197 482 -197 485 0 2 17 3 38 1 l37 -3 67 -165z m625 147 c10 -13 43 -67
73 -119 l54 -95 59 101 c74 127 85 138 126 134 l32 -3 -91 -149 -90 -149 0
-99 0 -98 -35 0 -35 0 0 99 0 99 -90 147 c-49 81 -90 149 -90 151 0 2 15 4 34
4 24 0 40 -7 53 -23z m880 -209 c51 -128 93 -240 95 -248 4 -18 -38 -26 -57
-10 -8 6 -24 38 -37 71 l-23 59 -106 0 -106 0 -18 -47 c-28 -76 -42 -93 -75
-93 -17 0 -30 3 -30 7 0 4 44 117 97 250 l97 243 36 0 35 0 92 -232z m490 159
c32 -40 96 -123 143 -185 l85 -112 3 185 2 185 30 0 30 0 0 -244 c0 -154 -4
-247 -10 -251 -24 -15 -56 16 -186 187 l-139 182 -3 -187 -2 -187 -30 0 -30 0
0 250 0 250 25 0 c19 0 38 -17 82 -73z m943 -164 c52 -131 95 -242 95 -248 0
-15 -44 -18 -60 -5 -8 6 -24 38 -37 71 l-23 59 -106 0 -106 0 -18 -47 c-28
-76 -42 -93 -75 -93 -17 0 -30 3 -30 6 0 4 44 117 97 250 l96 244 36 0 36 0
95 -237z"/>
<path d="M3767 3453 c-21 -54 -37 -101 -37 -105 0 -5 36 -8 80 -8 44 0 80 3
80 8 0 14 -73 202 -79 202 -3 0 -23 -44 -44 -97z"/>
<path d="M5704 3449 l-41 -109 83 0 c46 0 84 4 84 9 0 13 -70 194 -78 203 -4
4 -25 -43 -48 -103z"/>
<path d="M7137 3457 c-20 -56 -37 -105 -37 -109 0 -5 36 -8 80 -8 44 0 80 4
80 9 0 12 -70 194 -78 203 -4 4 -24 -39 -45 -95z"/>
</g>
</svg>
