<?xml version="1.0" standalone="no"?>
<!DOCTYPE svg PUBLIC "-//W3C//DTD SVG 20010904//EN"
 "http://www.w3.org/TR/2001/REC-SVG-20010904/DTD/svg10.dtd">
<svg version="1.0" xmlns="http://www.w3.org/2000/svg"
 width="256.000000pt" height="256.000000pt" viewBox="0 0 256.000000 256.000000"
 preserveAspectRatio="xMidYMid meet">
<metadata>
Created by potrace 1.16, written by Peter Selinger 2001-2019
</metadata>
<g transform="translate(0.000000,256.000000) scale(0.100000,-0.100000)"
fill="#000000" stroke="none">
<path d="M1710 2125 c-17 -18 -24 -38 -25 -65 0 -39 -9 -49 -307 -347 l-308
-308 -42 43 -43 42 228 228 c216 216 229 228 261 224 24 -3 40 3 63 22 37 31
48 67 33 111 -23 69 -109 88 -161 36 -28 -28 -33 -43 -30 -86 1 -14 -77 -98
-249 -270 -137 -137 -250 -254 -250 -260 0 -13 182 -195 195 -195 6 0 158 148
339 329 303 303 331 329 362 328 93 -3 143 105 79 168 -35 36 -112 35 -145 0z"/>
<path d="M755 1860 c-232 -232 -252 -250 -285 -250 -45 0 -78 -23 -96 -66 -12
-29 -12 -39 0 -68 25 -59 81 -81 139 -55 33 15 60 65 54 98 -5 25 15 49 222
255 l228 228 45 -45 45 -45 -306 -306 -306 -306 -43 0 c-62 0 -92 -32 -92 -99
0 -43 4 -53 31 -75 35 -30 67 -33 109 -11 37 19 50 43 50 92 0 37 12 50 330
368 182 181 330 335 330 340 0 13 -182 195 -195 195 -6 0 -123 -112 -260 -250z"/>
<path d="M2043 1795 c-28 -28 -34 -41 -32 -70 3 -34 -7 -45 -329 -368 -182
-183 -332 -337 -332 -342 0 -13 182 -195 195 -195 6 0 123 113 260 250 239
240 251 250 288 250 49 0 73 13 92 50 19 38 19 65 -2 100 -53 90 -183 52 -183
-53 l0 -44 -226 -223 -226 -222 -44 43 -44 44 307 307 c305 305 308 308 350
308 102 0 129 141 36 189 -40 20 -73 13 -110 -24z"/>
<path d="M1155 1300 c-318 -318 -331 -330 -368 -330 -49 0 -73 -13 -93 -52
-22 -43 -11 -90 28 -123 27 -23 39 -26 72 -22 55 8 86 44 86 100 0 42 2 44
308 348 l307 306 42 -47 42 -46 -224 -224 c-218 -218 -225 -224 -266 -225 -34
-1 -47 -7 -70 -33 -38 -42 -39 -89 -3 -131 22 -27 32 -31 74 -31 42 0 52 4 74
31 18 21 26 42 26 67 0 35 14 51 250 287 138 137 250 254 250 260 0 13 -182
195 -195 195 -6 0 -159 -148 -340 -330z"/>
<path d="M337 448 c-26 -68 -47 -129 -47 -136 0 -9 10 -12 28 -10 19 2 31 12
42 35 13 29 20 33 56 33 36 0 42 -3 55 -32 14 -33 52 -49 70 -31 4 4 -15 65
-42 136 -50 126 -51 127 -83 127 -32 0 -33 -1 -79 -122z"/>
<path d="M620 563 c0 -5 23 -65 51 -135 48 -121 53 -128 79 -128 26 0 31 7 79
128 28 70 51 130 51 135 0 4 -15 7 -34 7 -33 0 -35 -2 -61 -75 -16 -42 -31
-77 -34 -79 -4 -3 -20 31 -36 75 -28 77 -30 79 -62 79 -18 0 -33 -3 -33 -7z"/>
<path d="M970 563 c0 -5 20 -42 45 -83 38 -64 45 -83 45 -128 l0 -53 33 3 c32
3 32 4 37 63 5 48 14 74 48 128 23 37 42 70 42 73 0 3 -17 4 -37 2 -34 -3 -41
-8 -64 -51 l-26 -48 -27 51 c-25 45 -31 50 -62 50 -19 0 -34 -3 -34 -7z"/>
<path d="M1371 548 c-5 -13 -27 -69 -50 -126 -23 -56 -41 -107 -41 -112 0 -6
14 -10 31 -10 25 0 32 6 45 35 13 32 18 35 54 35 34 0 42 -4 53 -27 6 -16 16
-31 22 -35 16 -12 55 -9 55 4 0 6 -21 67 -47 135 -48 122 -48 123 -81 123 -25
0 -35 -5 -41 -22z"/>
<path d="M1662 438 l3 -133 27 -3 27 -3 3 76 3 76 37 -49 c59 -77 85 -102 108
-102 19 0 20 6 20 135 l0 135 -30 0 -30 0 0 -76 0 -77 -57 76 c-48 63 -63 77
-86 77 l-28 0 3 -132z"/>
<path d="M2101 548 c-5 -13 -27 -69 -50 -126 -23 -56 -41 -107 -41 -112 0 -6
14 -10 31 -10 25 0 32 6 45 35 13 32 18 35 54 35 34 0 42 -4 53 -27 6 -16 16
-31 22 -35 16 -12 55 -9 55 4 0 6 -21 67 -47 135 -48 122 -48 123 -81 123 -25
0 -35 -5 -41 -22z"/>
</g>
</svg>
